<svg width="212.1424560546875px" height="61.99000244140625px" xmlns="http://www.w3.org/2000/svg" viewBox="0 0 500 150" style="background: rgba(0, 0, 0, 0);"><defs><filter id="editing-extrude-glow"><feFlood flood-color="#99aab5" result="flood-1"></feFlood><feMorphology operator="erode" radius="1" in="SourceAlpha" result="erode"></feMorphology><feComposite operator="in" in="flood-1" in2="erode" result="comp1"></feComposite><feConvolveMatrix order="0,0" divisor="1" in="comp1" result="convolve" kernelMatrix=""></feConvolveMatrix><feOffset dx="0" dy="0" in="convolve" result="extrude"></feOffset><feComposite operator="in" in="flood-1" in2="extrude" result="comp-extrude"></feComposite><feFlood flood-color="#000000" result="flood-2"></feFlood><feComposite operator="in" in="flood-2" in2="SourceAlpha" result="comp2"></feComposite><feMorphology operator="dilate" radius="1" in="comp2" result="dilate"></feMorphology><feOffset dx="0" dy="0" in="dilate" result="offset"></feOffset><feGaussianBlur in="offset" stdDeviation="5.8" result="blur"></feGaussianBlur><feComponentTransfer in="blur" result="shadow"><feFuncA type="linear" slope="0.8" intercept="-0.2"></feFuncA></feComponentTransfer><feMerge><feMergeNode in="shadow"></feMergeNode><feMergeNode in="comp-extrude"></feMergeNode><feMergeNode in="SourceGraphic"></feMergeNode></feMerge></filter></defs><g filter="url(#editing-extrude-glow)"><g transform="translate(179.17312741279602, 86.86937522888184)"><path d="M18.52-11.16L18.52-9.77L18.52-9.77Q18.52-8.73 18.26-7.91L18.26-7.91L18.26-7.91Q18-7.09 17.56-6.46L17.56-6.46L17.56-6.46Q17.12-5.84 16.55-5.39L16.55-5.39L16.55-5.39Q15.97-4.95 15.35-4.66L15.35-4.66L15.35-4.66Q14.72-4.38 14.08-4.25L14.08-4.25L14.08-4.25Q13.44-4.13 12.88-4.13L12.88-4.13L5.99-4.13L5.99-7.17L12.88-7.17L12.88-7.17Q13.46-7.22 13.94-7.41L13.94-7.41L13.94-7.41Q14.41-7.61 14.75-7.93L14.75-7.93L14.75-7.93Q15.09-8.26 15.28-8.72L15.28-8.72L15.28-8.72Q15.47-9.19 15.47-9.77L15.47-9.77L15.47-11.16L15.47-11.16Q15.41-11.73 15.22-12.21L15.22-12.21L15.22-12.21Q15.04-12.69 14.71-13.03L14.71-13.03L14.71-13.03Q14.39-13.37 13.93-13.56L13.93-13.56L13.93-13.56Q13.48-13.76 12.88-13.76L12.88-13.76L6.01-13.76L6.01-13.76Q5.40-13.76 5.09-13.44L5.09-13.44L5.09-13.44Q4.77-13.13 4.77-12.53L4.77-12.53L4.77 0L1.72 0L1.72-12.53L1.72-12.53Q1.72-13.70 2.15-14.52L2.15-14.52L2.15-14.52Q2.58-15.34 3.22-15.84L3.22-15.84L3.22-15.84Q3.86-16.35 4.61-16.58L4.61-16.58L4.61-16.58Q5.36-16.80 5.99-16.80L5.99-16.80L12.88-16.80L12.88-16.80Q13.91-16.80 14.73-16.54L14.73-16.54L14.73-16.54Q15.55-16.28 16.18-15.84L16.18-15.84L16.18-15.84Q16.80-15.40 17.24-14.82L17.24-14.82L17.24-14.82Q17.68-14.25 17.97-13.62L17.97-13.62L17.97-13.62Q18.26-13.00 18.39-12.36L18.39-12.36L18.39-12.36Q18.52-11.72 18.52-11.16L18.52-11.16ZM31.80-12.67L31.80-9.62L24.95-9.62L24.95-9.62Q24.33-9.62 24.01-9.31L24.01-9.31L24.01-9.31Q23.70-9 23.70-8.40L23.70-8.40L23.70 0L20.65 0L20.65-8.40L20.65-8.40Q20.65-9.19 20.85-9.81L20.85-9.81L20.85-9.81Q21.05-10.43 21.38-10.90L21.38-10.90L21.38-10.90Q21.71-11.38 22.15-11.71L22.15-11.71L22.15-11.71Q22.58-12.05 23.06-12.26L23.06-12.26L23.06-12.26Q23.53-12.47 24.02-12.57L24.02-12.57L24.02-12.57Q24.50-12.67 24.93-12.67L24.93-12.67L31.80-12.67ZM47.54-8.40L47.54-4.28L47.54-4.28Q47.54-3.49 47.34-2.87L47.34-2.87L47.34-2.87Q47.14-2.24 46.82-1.76L46.82-1.76L46.82-1.76Q46.49-1.29 46.05-0.96L46.05-0.96L46.05-0.96Q45.62-0.62 45.15-0.41L45.15-0.41L45.15-0.41Q44.67-0.20 44.19-0.10L44.19-0.10L44.19-0.10Q43.70 0 43.27 0L43.27 0L37.77 0L37.77 0Q37.14 0 36.39-0.22L36.39-0.22L36.39-0.22Q35.64-0.45 35.00-0.96L35.00-0.96L35.00-0.96Q34.36-1.46 33.93-2.28L33.93-2.28L33.93-2.28Q33.50-3.09 33.50-4.28L33.50-4.28L33.50-8.40L33.50-8.40Q33.50-9.57 33.93-10.39L33.93-10.39L33.93-10.39Q34.36-11.20 35.00-11.71L35.00-11.71L35.00-11.71Q35.64-12.22 36.39-12.45L36.39-12.45L36.39-12.45Q37.14-12.67 37.77-12.67L37.77-12.67L43.27-12.67L43.27-12.67Q44.44-12.67 45.26-12.25L45.26-12.25L45.26-12.25Q46.08-11.82 46.58-11.19L46.58-11.19L46.58-11.19Q47.09-10.55 47.31-9.80L47.31-9.80L47.31-9.80Q47.54-9.05 47.54-8.40L47.54-8.40ZM44.50-4.28L44.50-8.38L44.50-8.38Q44.50-9.01 44.18-9.32L44.18-9.32L44.18-9.32Q43.86-9.62 43.27-9.62L43.27-9.62L37.79-9.62L37.79-9.62Q37.18-9.62 36.87-9.31L36.87-9.31L36.87-9.31Q36.55-9 36.55-8.40L36.55-8.40L36.55-4.28L36.55-4.28Q36.55-3.68 36.87-3.36L36.87-3.36L36.87-3.36Q37.18-3.05 37.79-3.05L37.79-3.05L43.27-3.05L43.27-3.05Q43.89-3.05 44.19-3.36L44.19-3.36L44.19-3.36Q44.50-3.68 44.50-4.28L44.50-4.28ZM53.23-18.02L53.23-15.27L50.18-15.27L50.18-18.02L53.23-18.02ZM53.23-12.67L53.23 1.22L53.23 1.22Q53.23 2.00 53.03 2.63L53.03 2.63L53.03 2.63Q52.83 3.26 52.50 3.73L52.50 3.73L52.50 3.73Q52.17 4.21 51.74 4.54L51.74 4.54L51.74 4.54Q51.30 4.88 50.83 5.09L50.83 5.09L50.83 5.09Q50.36 5.30 49.88 5.40L49.88 5.40L49.88 5.40Q49.39 5.50 48.96 5.50L48.96 5.50L43.46 5.50L43.46 2.45L48.96 2.45L48.96 2.45Q49.57 2.45 49.88 2.13L49.88 2.13L49.88 2.13Q50.18 1.82 50.18 1.22L50.18 1.22L50.18-12.67L53.23-12.67ZM69.77-8.47L69.77-8.47L69.77-8.47Q69.77-7.84 69.55-7.11L69.55-7.11L69.55-7.11Q69.33-6.38 68.83-5.75L68.83-5.75L68.83-5.75Q68.33-5.12 67.53-4.70L67.53-4.70L67.53-4.70Q66.73-4.28 65.58-4.28L65.58-4.28L60.08-4.28L60.08-7.17L65.58-7.17L65.58-7.17Q66.20-7.17 66.54-7.55L66.54-7.55L66.54-7.55Q66.88-7.93 66.88-8.50L66.88-8.50L66.88-8.50Q66.88-9.09 66.50-9.43L66.50-9.43L66.50-9.43Q66.12-9.77 65.58-9.77L65.58-9.77L60.08-9.77L60.08-9.77Q59.46-9.77 59.12-9.39L59.12-9.39L59.12-9.39Q58.78-9.01 58.78-8.45L58.78-8.45L58.78-4.20L58.78-4.20Q58.78-3.59 59.16-3.25L59.16-3.25L59.16-3.25Q59.54-2.91 60.11-2.91L60.11-2.91L65.58-2.91L65.58 0L60.08 0L60.08 0Q59.45 0 58.72-0.22L58.72-0.22L58.72-0.22Q57.98-0.45 57.36-0.94L57.36-0.94L57.36-0.94Q56.73-1.44 56.31-2.24L56.31-2.24L56.31-2.24Q55.89-3.05 55.89-4.20L55.89-4.20L55.89-8.47L55.89-8.47Q55.89-9.11 56.11-9.84L56.11-9.84L56.11-9.84Q56.33-10.57 56.83-11.20L56.83-11.20L56.83-11.20Q57.33-11.82 58.13-12.25L58.13-12.25L58.13-12.25Q58.93-12.67 60.08-12.67L60.08-12.67L65.58-12.67L65.58-12.67Q66.21-12.67 66.94-12.45L66.94-12.45L66.94-12.45Q67.68-12.22 68.30-11.72L68.30-11.72L68.30-11.72Q68.93-11.23 69.35-10.42L69.35-10.42L69.35-10.42Q69.77-9.62 69.77-8.47ZM84.09-3.05L84.09 0L75.83 0L75.83 0Q75.20 0 74.45-0.22L74.45-0.22L74.45-0.22Q73.70-0.45 73.06-0.96L73.06-0.96L73.06-0.96Q72.42-1.46 71.99-2.28L71.99-2.28L71.99-2.28Q71.57-3.09 71.57-4.28L71.57-4.28L71.57-8.40L71.57-8.40Q71.57-8.84 71.67-9.32L71.67-9.32L71.67-9.32Q71.77-9.80 71.98-10.27L71.98-10.27L71.98-10.27Q72.19-10.75 72.52-11.18L72.52-11.18L72.52-11.18Q72.86-11.61 73.33-11.94L73.33-11.94L73.33-11.94Q73.80-12.27 74.43-12.47L74.43-12.47L74.43-12.47Q75.05-12.67 75.83-12.67L75.83-12.67L84.09-12.67L84.09-9.62L75.83-9.62L75.83-9.62Q75.23-9.62 74.92-9.32L74.92-9.32L74.92-9.32Q74.61-9.01 74.61-8.38L74.61-8.38L74.61-4.28L74.61-4.28Q74.61-3.68 74.93-3.36L74.93-3.36L74.93-3.36Q75.25-3.05 75.86-3.05L75.86-3.05L84.09-3.05ZM98.13-12.67L98.13-9.62L92.81-9.62L92.81 0L89.73 0L89.73-9.62L85.77-9.62L85.77-12.67L89.73-12.67L89.73-16.80L92.81-16.80L92.81-12.67L98.13-12.67ZM117.22-11.16L117.22-9.77L117.22-9.77Q117.22-8.73 116.96-7.91L116.96-7.91L116.96-7.91Q116.71-7.09 116.27-6.46L116.27-6.46L116.27-6.46Q115.83-5.84 115.25-5.39L115.25-5.39L115.25-5.39Q114.68-4.95 114.05-4.66L114.05-4.66L114.05-4.66Q113.43-4.38 112.79-4.25L112.79-4.25L112.79-4.25Q112.15-4.13 111.59-4.13L111.59-4.13L104.70-4.13L104.70-7.17L111.59-7.17L111.59-7.17Q112.17-7.22 112.65-7.41L112.65-7.41L112.65-7.41Q113.12-7.61 113.46-7.93L113.46-7.93L113.46-7.93Q113.80-8.26 113.99-8.72L113.99-8.72L113.99-8.72Q114.18-9.19 114.18-9.77L114.18-9.77L114.18-11.16L114.18-11.16Q114.12-11.73 113.93-12.21L113.93-12.21L113.93-12.21Q113.74-12.69 113.42-13.03L113.42-13.03L113.42-13.03Q113.10-13.37 112.64-13.56L112.64-13.56L112.64-13.56Q112.18-13.76 111.59-13.76L111.59-13.76L104.72-13.76L104.72-13.76Q104.11-13.76 103.79-13.44L103.79-13.44L103.79-13.44Q103.48-13.13 103.48-12.53L103.48-12.53L103.48 0L100.43 0L100.43-12.53L100.43-12.53Q100.43-13.70 100.86-14.52L100.86-14.52L100.86-14.52Q101.29-15.34 101.92-15.84L101.92-15.84L101.92-15.84Q102.56-16.35 103.31-16.58L103.31-16.58L103.31-16.58Q104.06-16.80 104.70-16.80L104.70-16.80L111.59-16.80L111.59-16.80Q112.62-16.80 113.44-16.54L113.44-16.54L113.44-16.54Q114.26-16.28 114.88-15.84L114.88-15.84L114.88-15.84Q115.51-15.40 115.95-14.82L115.95-14.82L115.95-14.82Q116.39-14.25 116.68-13.62L116.68-13.62L116.68-13.62Q116.96-13.00 117.09-12.36L117.09-12.36L117.09-12.36Q117.22-11.72 117.22-11.16L117.22-11.16ZM132.18-8.47L132.18-4.20L132.18-4.20Q132.18-3.56 131.95-2.83L131.95-2.83L131.95-2.83Q131.73-2.10 131.23-1.47L131.23-1.47L131.23-1.47Q130.73-0.84 129.93-0.42L129.93-0.42L129.93-0.42Q129.13 0 127.98 0L127.98 0L122.48 0L122.48 0Q121.85 0 121.12-0.22L121.12-0.22L121.12-0.22Q120.39-0.45 119.76-0.94L119.76-0.94L119.76-0.94Q119.13-1.44 118.71-2.24L118.71-2.24L118.71-2.24Q118.29-3.05 118.29-4.20L118.29-4.20L118.29-4.20Q118.29-4.83 118.51-5.57L118.51-5.57L118.51-5.57Q118.73-6.30 119.23-6.93L119.23-6.93L119.23-6.93Q119.73-7.56 120.53-7.98L120.53-7.98L120.53-7.98Q121.34-8.40 122.48-8.40L122.48-8.40L127.98-8.40L127.98-5.50L122.48-5.50L122.48-5.50Q121.86-5.50 121.52-5.12L121.52-5.12L121.52-5.12Q121.18-4.73 121.18-4.17L121.18-4.17L121.18-4.17Q121.18-3.57 121.58-3.24L121.58-3.24L121.58-3.24Q121.97-2.91 122.51-2.91L122.51-2.91L127.98-2.91L127.98-2.91Q128.60-2.91 128.94-3.28L128.94-3.28L128.94-3.28Q129.28-3.66 129.28-4.22L129.28-4.22L129.28-8.47L129.28-8.47Q129.28-9.07 128.91-9.42L128.91-9.42L128.91-9.42Q128.54-9.77 127.98-9.77L127.98-9.77L121.29-9.77L121.29-12.67L127.98-12.67L127.98-12.67Q128.61-12.67 129.35-12.45L129.35-12.45L129.35-12.45Q130.08-12.22 130.71-11.72L130.71-11.72L130.71-11.72Q131.33-11.23 131.75-10.42L131.75-10.42L131.75-10.42Q132.18-9.62 132.18-8.47L132.18-8.47ZM140.34-3.05L140.34 0L138.98 0L138.98 0Q138.33 0 137.58-0.22L137.58-0.22L137.58-0.22Q136.84-0.45 136.20-0.96L136.20-0.96L136.20-0.96Q135.55-1.46 135.13-2.28L135.13-2.28L135.13-2.28Q134.71-3.09 134.71-4.28L134.71-4.28L134.71-18.02L137.75-18.02L137.75-4.28L137.75-4.28Q137.75-3.71 138.11-3.38L138.11-3.38L138.11-3.38Q138.46-3.05 138.98-3.05L138.98-3.05L140.34-3.05Z" fill="#7289da"></path></g></g><style>text {
  font-size: 64px;
  font-family: Arial Black;
  dominant-baseline: central;
  text-anchor: middle;
}</style></svg>