<svg width="403.158740234375px" height="103.9800048828125px" xmlns="http://www.w3.org/2000/svg" viewBox="0 0 500 150" style="background: rgba(0, 0, 0, 0);"><defs><filter id="editing-extrude-glow"><feFlood flood-color="#99aab5" result="flood-1"></feFlood><feMorphology operator="erode" radius="1" in="SourceAlpha" result="erode"></feMorphology><feComposite operator="in" in="flood-1" in2="erode" result="comp1"></feComposite><feConvolveMatrix order="0,0" divisor="1" in="comp1" result="convolve" kernelMatrix=""></feConvolveMatrix><feOffset dx="0" dy="0" in="convolve" result="extrude"></feOffset><feComposite operator="in" in="flood-1" in2="extrude" result="comp-extrude"></feComposite><feFlood flood-color="#000000" result="flood-2"></feFlood><feComposite operator="in" in="flood-2" in2="SourceAlpha" result="comp2"></feComposite><feMorphology operator="dilate" radius="1" in="comp2" result="dilate"></feMorphology><feOffset dx="0" dy="0" in="dilate" result="offset"></feOffset><feGaussianBlur in="offset" stdDeviation="5.8" result="blur"></feGaussianBlur><feComponentTransfer in="blur" result="shadow"><feFuncA type="linear" slope="0.8" intercept="-0.2"></feFuncA></feComponentTransfer><feMerge><feMergeNode in="shadow"></feMergeNode><feMergeNode in="comp-extrude"></feMergeNode><feMergeNode in="SourceGraphic"></feMergeNode></feMerge></filter></defs><g filter="url(#editing-extrude-glow)"><g transform="translate(107.92219233512878, 98.73875045776367)"><path d="M37.03-22.31L37.03-19.55L37.03-19.55Q37.03-17.46 36.52-15.82L36.52-15.82L36.52-15.82Q36-14.18 35.12-12.93L35.12-12.93L35.12-12.93Q34.24-11.67 33.09-10.78L33.09-10.78L33.09-10.78Q31.95-9.89 30.69-9.33L30.69-9.33L30.69-9.33Q29.44-8.77 28.16-8.51L28.16-8.51L28.16-8.51Q26.88-8.25 25.76-8.25L25.76-8.25L11.98-8.25L11.98-14.34L25.76-14.34L25.76-14.34Q26.93-14.44 27.88-14.82L27.88-14.82L27.88-14.82Q28.83-15.21 29.51-15.87L29.51-15.87L29.51-15.87Q30.19-16.52 30.56-17.45L30.56-17.45L30.56-17.45Q30.94-18.38 30.94-19.55L30.94-19.55L30.94-22.31L30.94-22.31Q30.82-23.46 30.45-24.42L30.45-24.42L30.45-24.42Q30.07-25.38 29.43-26.06L29.43-26.06L29.43-26.06Q28.78-26.74 27.87-27.13L27.87-27.13L27.87-27.13Q26.95-27.52 25.76-27.52L25.76-27.52L12.02-27.52L12.02-27.52Q10.80-27.52 10.17-26.88L10.17-26.88L10.17-26.88Q9.54-26.25 9.54-25.05L9.54-25.05L9.54 0L3.45 0L3.45-25.05L3.45-25.05Q3.45-27.40 4.30-29.04L4.30-29.04L4.30-29.04Q5.16-30.68 6.43-31.69L6.43-31.69L6.43-31.69Q7.71-32.70 9.21-33.15L9.21-33.15L9.21-33.15Q10.71-33.61 11.98-33.61L11.98-33.61L25.76-33.61L25.76-33.61Q27.82-33.61 29.46-33.08L29.46-33.08L29.46-33.08Q31.10-32.55 32.36-31.68L32.36-31.68L32.36-31.68Q33.61-30.80 34.49-29.65L34.49-29.65L34.49-29.65Q35.37-28.50 35.94-27.25L35.94-27.25L35.94-27.25Q36.52-25.99 36.77-24.71L36.77-24.71L36.77-24.71Q37.03-23.44 37.03-22.31L37.03-22.31ZM63.61-25.34L63.61-19.24L49.90-19.24L49.90-19.24Q48.66-19.24 48.02-18.62L48.02-18.62L48.02-18.62Q47.39-18 47.39-16.80L47.39-16.80L47.39 0L41.30 0L41.30-16.80L41.30-16.80Q41.30-18.38 41.70-19.62L41.70-19.62L41.70-19.62Q42.09-20.86 42.76-21.81L42.76-21.81L42.76-21.81Q43.43-22.76 44.30-23.43L44.30-23.43L44.30-23.43Q45.16-24.09 46.11-24.52L46.11-24.52L46.11-24.52Q47.06-24.94 48.04-25.14L48.04-25.14L48.04-25.14Q49.01-25.34 49.85-25.34L49.85-25.34L63.61-25.34ZM95.09-16.80L95.09-8.55L95.09-8.55Q95.09-6.98 94.69-5.73L94.69-5.73L94.69-5.73Q94.29-4.48 93.63-3.53L93.63-3.53L93.63-3.53Q92.98-2.58 92.11-1.91L92.11-1.91L92.11-1.91Q91.24-1.24 90.29-0.82L90.29-0.82L90.29-0.82Q89.34-0.40 88.37-0.20L88.37-0.20L88.37-0.20Q87.40 0 86.53 0L86.53 0L75.54 0L75.54 0Q74.27 0 72.77-0.45L72.77-0.45L72.77-0.45Q71.27-0.89 70.00-1.91L70.00-1.91L70.00-1.91Q68.72-2.93 67.86-4.56L67.86-4.56L67.86-4.56Q67.01-6.19 67.01-8.55L67.01-8.55L67.01-16.80L67.01-16.80Q67.01-19.15 67.86-20.78L67.86-20.78L67.86-20.78Q68.72-22.41 70.00-23.43L70.00-23.43L70.00-23.43Q71.27-24.45 72.77-24.89L72.77-24.89L72.77-24.89Q74.27-25.34 75.54-25.34L75.54-25.34L86.53-25.34L86.53-25.34Q88.88-25.34 90.52-24.49L90.52-24.49L90.52-24.49Q92.16-23.65 93.16-22.37L93.16-22.37L93.16-22.37Q94.17-21.09 94.63-19.59L94.63-19.59L94.63-19.59Q95.09-18.09 95.09-16.80L95.09-16.80ZM88.99-8.55L88.99-16.76L88.99-16.76Q88.99-18.02 88.36-18.63L88.36-18.63L88.36-18.63Q87.73-19.24 86.53-19.24L86.53-19.24L75.59-19.24L75.59-19.24Q74.37-19.24 73.73-18.62L73.73-18.62L73.73-18.62Q73.10-18 73.10-16.80L73.10-16.80L73.10-8.55L73.10-8.55Q73.10-7.36 73.73-6.73L73.73-6.73L73.73-6.73Q74.37-6.09 75.59-6.09L75.59-6.09L86.53-6.09L86.53-6.09Q87.77-6.09 88.38-6.73L88.38-6.73L88.38-6.73Q88.99-7.36 88.99-8.55L88.99-8.55ZM106.45-36.05L106.45-30.54L100.36-30.54L100.36-36.05L106.45-36.05ZM106.45-25.34L106.45 2.44L106.45 2.44Q106.45 4.01 106.05 5.26L106.05 5.26L106.05 5.26Q105.66 6.52 105 7.46L105 7.46L105 7.46Q104.34 8.41 103.48 9.08L103.48 9.08L103.48 9.08Q102.61 9.75 101.66 10.17L101.66 10.17L101.66 10.17Q100.71 10.59 99.75 10.79L99.75 10.79L99.75 10.79Q98.79 10.99 97.92 10.99L97.92 10.99L86.93 10.99L86.93 4.90L97.92 4.90L97.92 4.90Q99.14 4.90 99.75 4.27L99.75 4.27L99.75 4.27Q100.36 3.63 100.36 2.44L100.36 2.44L100.36-25.34L106.45-25.34ZM139.55-16.95L139.55-16.95L139.55-16.95Q139.55-15.68 139.10-14.21L139.10-14.21L139.10-14.21Q138.66-12.75 137.66-11.50L137.66-11.50L137.66-11.50Q136.66-10.24 135.06-9.40L135.06-9.40L135.06-9.40Q133.45-8.55 131.16-8.55L131.16-8.55L120.16-8.55L120.16-14.34L131.16-14.34L131.16-14.34Q132.40-14.34 133.08-15.11L133.08-15.11L133.08-15.11Q133.76-15.87 133.76-16.99L133.76-16.99L133.76-16.99Q133.76-18.19 133.00-18.87L133.00-18.87L133.00-18.87Q132.23-19.55 131.16-19.55L131.16-19.55L120.16-19.55L120.16-19.55Q118.92-19.55 118.24-18.79L118.24-18.79L118.24-18.79Q117.56-18.02 117.56-16.90L117.56-16.90L117.56-8.39L117.56-8.39Q117.56-7.17 118.32-6.49L118.32-6.49L118.32-6.49Q119.09-5.81 120.21-5.81L120.21-5.81L131.16-5.81L131.16 0L120.16 0L120.16 0Q118.90 0 117.43-0.45L117.43-0.45L117.43-0.45Q115.97-0.89 114.71-1.89L114.71-1.89L114.71-1.89Q113.46-2.88 112.62-4.49L112.62-4.49L112.62-4.49Q111.77-6.09 111.77-8.39L111.77-8.39L111.77-16.95L111.77-16.95Q111.77-18.21 112.22-19.68L112.22-19.68L112.22-19.68Q112.66-21.14 113.66-22.39L113.66-22.39L113.66-22.39Q114.66-23.65 116.26-24.49L116.26-24.49L116.26-24.49Q117.87-25.34 120.16-25.34L120.16-25.34L131.16-25.34L131.16-25.34Q132.42-25.34 133.89-24.89L133.89-24.89L133.89-24.89Q135.35-24.45 136.61-23.45L136.61-23.45L136.61-23.45Q137.86-22.45 138.70-20.85L138.70-20.85L138.70-20.85Q139.55-19.24 139.55-16.95ZM168.19-6.09L168.19 0L151.66 0L151.66 0Q150.40 0 148.90-0.45L148.90-0.45L148.90-0.45Q147.40-0.89 146.12-1.91L146.12-1.91L146.12-1.91Q144.84-2.93 143.99-4.56L143.99-4.56L143.99-4.56Q143.13-6.19 143.13-8.55L143.13-8.55L143.13-16.80L143.13-16.80Q143.13-17.67 143.33-18.63L143.33-18.63L143.33-18.63Q143.53-19.59 143.95-20.54L143.95-20.54L143.95-20.54Q144.38-21.49 145.04-22.36L145.04-22.36L145.04-22.36Q145.71-23.23 146.66-23.88L146.66-23.88L146.66-23.88Q147.61-24.54 148.85-24.94L148.85-24.94L148.85-24.94Q150.09-25.34 151.66-25.34L151.66-25.34L168.19-25.34L168.19-19.24L151.66-19.24L151.66-19.24Q150.47-19.24 149.85-18.63L149.85-18.63L149.85-18.63Q149.23-18.02 149.23-16.76L149.23-16.76L149.23-8.55L149.23-8.55Q149.23-7.36 149.86-6.73L149.86-6.73L149.86-6.73Q150.49-6.09 151.71-6.09L151.71-6.09L168.19-6.09ZM196.27-25.34L196.27-19.24L185.63-19.24L185.63 0L179.46 0L179.46-19.24L171.54-19.24L171.54-25.34L179.46-25.34L179.46-33.61L185.63-33.61L185.63-25.34L196.27-25.34ZM234.45-22.31L234.45-19.55L234.45-19.55Q234.45-17.46 233.93-15.82L233.93-15.82L233.93-15.82Q233.41-14.18 232.54-12.93L232.54-12.93L232.54-12.93Q231.66-11.67 230.51-10.78L230.51-10.78L230.51-10.78Q229.36-9.89 228.11-9.33L228.11-9.33L228.11-9.33Q226.85-8.77 225.57-8.51L225.57-8.51L225.57-8.51Q224.30-8.25 223.17-8.25L223.17-8.25L209.39-8.25L209.39-14.34L223.17-14.34L223.17-14.34Q224.34-14.44 225.29-14.82L225.29-14.82L225.29-14.82Q226.24-15.21 226.92-15.87L226.92-15.87L226.92-15.87Q227.60-16.52 227.98-17.45L227.98-17.45L227.98-17.45Q228.35-18.38 228.35-19.55L228.35-19.55L228.35-22.31L228.35-22.31Q228.23-23.46 227.86-24.42L227.86-24.42L227.86-24.42Q227.48-25.38 226.84-26.06L226.84-26.06L226.84-26.06Q226.20-26.74 225.28-27.13L225.28-27.13L225.28-27.13Q224.37-27.52 223.17-27.52L223.17-27.52L209.44-27.52L209.44-27.52Q208.22-27.52 207.59-26.88L207.59-26.88L207.59-26.88Q206.95-26.25 206.95-25.05L206.95-25.05L206.95 0L200.86 0L200.86-25.05L200.86-25.05Q200.86-27.40 201.71-29.04L201.71-29.04L201.71-29.04Q202.57-30.68 203.85-31.69L203.85-31.69L203.85-31.69Q205.13-32.70 206.63-33.15L206.63-33.15L206.63-33.15Q208.13-33.61 209.39-33.61L209.39-33.61L223.17-33.61L223.17-33.61Q225.23-33.61 226.88-33.08L226.88-33.08L226.88-33.08Q228.52-32.55 229.77-31.68L229.77-31.68L229.77-31.68Q231.02-30.80 231.90-29.65L231.90-29.65L231.90-29.65Q232.78-28.50 233.36-27.25L233.36-27.25L233.36-27.25Q233.93-25.99 234.19-24.71L234.19-24.71L234.19-24.71Q234.45-23.44 234.45-22.31L234.45-22.31ZM264.35-16.95L264.35-8.39L264.35-8.39Q264.35-7.13 263.91-5.66L263.91-5.66L263.91-5.66Q263.46-4.20 262.46-2.94L262.46-2.94L262.46-2.94Q261.47-1.69 259.86-0.84L259.86-0.84L259.86-0.84Q258.26 0 255.96 0L255.96 0L244.97 0L244.97 0Q243.70 0 242.24-0.45L242.24-0.45L242.24-0.45Q240.77-0.89 239.52-1.89L239.52-1.89L239.52-1.89Q238.27-2.88 237.42-4.49L237.42-4.49L237.42-4.49Q236.58-6.09 236.58-8.39L236.58-8.39L236.58-8.39Q236.58-9.66 237.02-11.13L237.02-11.13L237.02-11.13Q237.47-12.61 238.46-13.86L238.46-13.86L238.46-13.86Q239.46-15.12 241.07-15.96L241.07-15.96L241.07-15.96Q242.67-16.80 244.97-16.80L244.97-16.80L255.96-16.80L255.96-10.99L244.97-10.99L244.97-10.99Q243.73-10.99 243.05-10.23L243.05-10.23L243.05-10.23Q242.37-9.47 242.37-8.34L242.37-8.34L242.37-8.34Q242.37-7.15 243.15-6.48L243.15-6.48L243.15-6.48Q243.94-5.81 245.02-5.81L245.02-5.81L255.96-5.81L255.96-5.81Q257.20-5.81 257.88-6.56L257.88-6.56L257.88-6.56Q258.56-7.31 258.56-8.44L258.56-8.44L258.56-16.95L258.56-16.95Q258.56-18.14 257.82-18.84L257.82-18.84L257.82-18.84Q257.09-19.55 255.96-19.55L255.96-19.55L242.58-19.55L242.58-25.34L255.96-25.34L255.96-25.34Q257.23-25.34 258.69-24.89L258.69-24.89L258.69-24.89Q260.16-24.45 261.41-23.45L261.41-23.45L261.41-23.45Q262.66-22.45 263.51-20.85L263.51-20.85L263.51-20.85Q264.35-19.24 264.35-16.95L264.35-16.95ZM280.69-6.09L280.69 0L277.97 0L277.97 0Q276.66 0 275.17-0.45L275.17-0.45L275.17-0.45Q273.68-0.89 272.39-1.91L272.39-1.91L272.39-1.91Q271.10-2.93 270.26-4.56L270.26-4.56L270.26-4.56Q269.41-6.19 269.41-8.55L269.41-8.55L269.41-36.05L275.51-36.05L275.51-8.55L275.51-8.55Q275.51-7.43 276.21-6.76L276.21-6.76L276.21-6.76Q276.91-6.09 277.97-6.09L277.97-6.09L280.69-6.09Z" fill="#7289da"></path></g></g><style>text {
  font-size: 64px;
  font-family: Arial Black;
  dominant-baseline: central;
  text-anchor: middle;
}</style></svg>